<?xml version="1.0" encoding="UTF-8" standalone="no"?>
<!-- Created with Inkscape (http://www.inkscape.org/) -->

<svg
   width="48"
   height="48"
   viewBox="0 0 12.7 12.7"
   version="1.1"
   id="svg5"
   sodipodi:docname="icon.svg"
   inkscape:version="1.2-alpha1 (b6a15bbbed, 2022-02-23)"
   inkscape:export-filename="C:\Users\jackw\Desktop\personal-website\static\favicon.svg"
   inkscape:export-xdpi="96"
   inkscape:export-ydpi="96"
   xmlns:inkscape="http://www.inkscape.org/namespaces/inkscape"
   xmlns:sodipodi="http://sodipodi.sourceforge.net/DTD/sodipodi-0.dtd"
   xmlns="http://www.w3.org/2000/svg"
   xmlns:svg="http://www.w3.org/2000/svg">
  <sodipodi:namedview
     id="namedview7"
     pagecolor="#ffffff"
     bordercolor="#000000"
     borderopacity="0.25"
     inkscape:pageshadow="2"
     inkscape:pageopacity="0.0"
     inkscape:pagecheckerboard="true"
     inkscape:deskcolor="#d1d1d1"
     inkscape:document-units="mm"
     showgrid="false"
     inkscape:zoom="17.666667"
     inkscape:cx="28.386792"
     inkscape:cy="22.132075"
     inkscape:window-width="1920"
     inkscape:window-height="1046"
     inkscape:window-x="-11"
     inkscape:window-y="-11"
     inkscape:window-maximized="1"
     inkscape:current-layer="layer1" />
  <defs
     id="defs2" />
  <g
     inkscape:label="Layer 1"
     inkscape:groupmode="layer"
     id="layer1">
    <circle
       style="fill:#ffffff;stroke:none;stroke-width:0.467431"
       id="path638"
       cx="6.3499999"
       cy="6.3499999"
       r="6.3499999" />
    <path
       style="fill:#000000;stroke:none;stroke-width:0.264583"
       id="path3655"
       d="m 5.8457809,1.922587 c 0.075605,0.2968352 0.1441738,0.5960628 0.1912125,0.898924 0.018947,0.1219898 0.033058,0.2446816 0.049587,0.3670226 0.013121,0.1418979 0.028755,0.2835857 0.039359,0.4256939 0.022733,0.3046664 0.037057,0.6506771 0.043396,0.9557054 0.0073,0.3512724 0.00658,0.6186684 -0.00823,0.9702954 -0.00678,0.161019 -0.019018,0.321762 -0.028527,0.482643 -0.016042,0.154863 -0.02801,0.310202 -0.048122,0.464589 -0.050978,0.391298 -0.1244811,0.800207 -0.2663332,1.170275 -0.096792,0.252513 -0.1410351,0.301939 -0.2787057,0.524667 -0.055999,0.06543 -0.1080715,0.134444 -0.1679956,0.196303 -0.220154,0.227262 -0.5083234,0.415288 -0.805475,0.524667 -0.067995,0.02503 -0.1390743,0.04071 -0.2086113,0.06107 -0.072591,0.0077 -0.1447871,0.02186 -0.2177722,0.02297 -0.1822349,0.0028 -0.3577772,-0.02671 -0.5334616,-0.07371 C 3.410018,8.8612363 3.2028643,8.7846833 3.027189,8.6815383 2.9370666,8.6286243 2.8565705,8.5608033 2.7712612,8.5004353 2.7034728,8.4232503 2.6277912,8.3523383 2.5678961,8.2688783 2.3050963,7.9026853 2.1786086,7.4403513 2.2167766,6.9914283 c 0.00886,-0.104237 0.037824,-0.205778 0.056736,-0.308666 0.097637,-0.243528 0.1035735,-0.311883 0.269736,-0.517172 0.1796495,-0.221951 0.4285102,-0.394946 0.6906393,-0.504712 0.088082,-0.03688 0.1814409,-0.05962 0.2721612,-0.08943 0.097231,-0.01704 0.1936017,-0.04007 0.2916936,-0.05113 0.2912078,-0.03284 0.5814325,-0.01424 0.8617482,0.07406 0.2398493,0.07555 0.3003439,0.123645 0.5210543,0.245562 0.084205,0.05944 0.173175,0.112649 0.2526138,0.178324 0.1861788,0.153921 0.3404034,0.334005 0.4872768,0.524887 0.2663674,0.346182 0.4887952,0.722893 0.7158595,1.095058 0.2035366,0.336693 0.4028972,0.678478 0.6473513,0.988032 0.071272,0.09025 0.1448488,0.179107 0.2253382,0.261244 0.228369,0.233045 0.2683677,0.237274 0.540479,0.412202 0.097599,0.04294 0.1923991,0.0929 0.2927974,0.128808 0.2713297,0.09704 0.5610723,0.134763 0.8479873,0.135292 0.210888,3.97e-4 0.292122,-0.0151 0.498621,-0.03923 0.3318965,-0.0494 0.6505005,-0.158395 0.9462925,-0.316243 0.173732,-0.09271 0.251812,-0.150041 0.413839,-0.25773 0.232164,-0.162733 0.460189,-0.331214 0.687079,-0.501176 0.565866,-0.423989 -0.03374,-1.224244 -0.599611,-0.800255 v 0 c -0.212641,0.159366 -0.42645,0.317184 -0.643607,0.470373 -0.111331,0.07517 -0.182452,0.126849 -0.299545,0.191725 -0.1951895,0.108146 -0.4049455,0.18597 -0.6258255,0.220725 -0.05656,0.0074 -0.112893,0.01668 -0.169673,0.02206 -0.222523,0.02104 -0.454396,0.01629 -0.670158,-0.04825 -0.052806,-0.0158 -0.1031968,-0.03876 -0.1547954,-0.05814 -0.050565,-0.02834 -0.1042278,-0.05174 -0.1516964,-0.08501 C 8.2897278,8.2705103 8.1919381,8.1626063 8.0916002,8.0370403 7.8624009,7.7502133 7.6800516,7.4297833 7.4897638,7.1171153 7.235445,6.7008603 6.9857625,6.2789493 6.6823518,5.8955163 6.5782087,5.7639053 6.4705592,5.6345253 6.3535332,5.5142253 6.0572547,5.2096583 5.9890363,5.1870373 5.6508076,4.9574423 5.3231738,4.7871973 5.2314631,4.7180117 4.8744645,4.6177841 4.4621775,4.5020342 4.0306572,4.4787821 3.6071268,4.5386824 3.4609688,4.5593543 3.3180242,4.5984955 3.1734731,4.6284021 2.8088154,4.7627459 2.6963137,4.7795559 2.3703709,4.9982913 c -0.3978122,0.266966 -0.7251748,0.627631 -0.9255117,1.065528 -0.068105,0.148864 -0.1062175,0.309699 -0.159326,0.464548 -0.061582,0.443092 -0.1061505,0.546951 -0.046362,0.998261 0.068588,0.517734 0.2736302,1.022691 0.6030481,1.430244 0.1096825,0.135698 0.2457085,0.247798 0.3685627,0.371697 0.1322364,0.08687 0.258249,0.184044 0.3967097,0.260602 0.2411372,0.13333 0.5479814,0.244177 0.8159908,0.307675 0.2885652,0.06837 0.5555774,0.100433 0.8521319,0.08123 0.1278051,-0.0083 0.2530991,-0.03939 0.3796485,-0.05908 0.1082302,-0.03513 0.2187308,-0.06391 0.3246906,-0.10538 0.4315473,-0.16892 0.8529852,-0.457778 1.1645299,-0.800624 0.090648,-0.09976 0.1682181,-0.210655 0.2523273,-0.315983 C 6.586944,8.3735633 6.6388441,8.3170193 6.771942,7.9580233 6.9344591,7.5196763 7.0200309,7.0515453 7.079209,6.5894703 7.100839,6.4205843 7.11363,6.2506843 7.13084,6.0812903 7.14081,5.9092063 7.153705,5.7372663 7.160767,5.5650383 7.17593,5.1952213 7.176671,4.9058943 7.168757,4.5369021 7.1618096,4.2126282 7.1462945,3.8447235 7.1215662,3.5211254 7.1096335,3.3649831 7.0921091,3.2093187 7.0773806,3.0534151 7.0586137,2.9169372 7.0424722,2.7800722 7.0210788,2.6439811 6.969997,2.3190275 6.8967122,1.9978287 6.8156817,1.6792066 6.6435856,0.99338308 5.673685,1.2367635 5.8457809,1.922587 Z" />
  </g>
</svg>
