<?xml version="1.0" encoding="UTF-8" standalone="no"?>
<!-- Created with Inkscape (http://www.inkscape.org/) -->

<svg
   width="48"
   height="48"
   viewBox="0 0 12.7 12.7"
   version="1.1"
   id="svg5"
   sodipodi:docname="icon.svg"
   xmlns:inkscape="http://www.inkscape.org/namespaces/inkscape"
   xmlns:sodipodi="http://sodipodi.sourceforge.net/DTD/sodipodi-0.dtd"
   xmlns="http://www.w3.org/2000/svg"
   xmlns:svg="http://www.w3.org/2000/svg">
  <sodipodi:namedview
     id="namedview7"
     pagecolor="#ffffff"
     bordercolor="#000000"
     borderopacity="0.25"
     inkscape:pageshadow="2"
     inkscape:pageopacity="0.0"
     inkscape:pagecheckerboard="0"
     inkscape:deskcolor="#d1d1d1"
     inkscape:document-units="mm"
     showgrid="false" />
  <defs
     id="defs2" />
  <g
     inkscape:label="Layer 1"
     inkscape:groupmode="layer"
     id="layer1">
    <path
       style="fill:#000000;stroke-width:0.264583"
       id="path1734"
       d="m 5.8457809,2.3768717 c 0.075605,0.2968352 0.1441738,0.5960628 0.1912125,0.898924 0.018947,0.1219898 0.033058,0.2446816 0.049587,0.3670226 0.013121,0.1418979 0.028755,0.2835857 0.039359,0.4256939 0.022733,0.3046664 0.037057,0.6506771 0.043396,0.9557054 0.0073,0.3512728 0.00658,0.6186686 -0.00823,0.9702953 -0.00678,0.1610191 -0.019018,0.3217625 -0.028527,0.4826434 -0.016042,0.154863 -0.02801,0.310202 -0.048122,0.464589 C 6.0334779,7.3330427 5.9599753,7.7419525 5.8181232,8.1120202 5.7213315,8.3645329 5.6770881,8.413959 5.5394175,8.6366871 5.4834189,8.7021214 5.431346,8.7711311 5.3714219,8.8329902 5.1512679,9.0602524 4.8630985,9.2482778 4.5659469,9.357657 4.4979519,9.382687 4.4268726,9.398367 4.3573356,9.418727 4.2847446,9.426427 4.2125485,9.440587 4.1395634,9.441697 3.9573285,9.444497 3.7817862,9.414987 3.6061018,9.367987 3.410018,9.315521 3.2028643,9.2389681 3.027189,9.1358232 2.9370666,9.0829092 2.8565705,9.0150878 2.7712612,8.9547202 2.7034728,8.8775346 2.6277912,8.8066226 2.5678961,8.7231629 2.3050963,8.3569701 2.1786086,7.8946364 2.2167766,7.4457128 2.2256375,7.3414765 2.2546006,7.2399355 2.2735128,7.1370467 2.3711498,6.8935195 2.3770863,6.8251644 2.5432488,6.6198752 2.7228983,6.3979237 2.971759,6.2249293 3.2338881,6.1151635 c 0.088082,-0.036884 0.1814409,-0.059622 0.2721612,-0.089432 0.097231,-0.017044 0.1936017,-0.040069 0.2916936,-0.05113 0.2912078,-0.032837 0.5814325,-0.014242 0.8617482,0.074057 0.2398493,0.075553 0.3003439,0.1236443 0.5210543,0.2455619 0.084205,0.059441 0.173175,0.112649 0.2526138,0.1783239 0.1861788,0.153921 0.3404034,0.3340044 0.4872768,0.524887 0.2663674,0.3461821 0.4887952,0.722893 0.7158595,1.0950575 0.2035366,0.3366934 0.4028972,0.6784787 0.6473513,0.9880327 0.071272,0.090252 0.1448488,0.179107 0.2253382,0.2612435 0.228369,0.233045 0.2683677,0.237274 0.540479,0.412202 0.097599,0.04294 0.1923991,0.0929 0.2927974,0.128808 0.2713297,0.09704 0.5610723,0.134763 0.8479873,0.135292 0.210888,3.97e-4 0.292122,-0.0151 0.498621,-0.03923 C 10.020766,9.929437 10.33937,9.820442 10.635162,9.662594 10.808894,9.569884 10.886974,9.512553 11.049001,9.404864 11.281165,9.242131 11.50919,9.0736499 11.73608,8.9036879 12.301946,8.4796989 11.70234,7.6794436 11.136469,8.1034326 v 0 c -0.212641,0.1593667 -0.42645,0.3171843 -0.643607,0.4703733 -0.111331,0.075166 -0.182452,0.1268487 -0.299545,0.1917253 -0.1951893,0.1081463 -0.4049453,0.1859701 -0.6258253,0.2207252 -0.05656,0.00735 -0.112893,0.016685 -0.169673,0.022056 -0.222523,0.02104 -0.454396,0.01629 -0.670158,-0.048254 C 8.6748547,8.9442596 8.6244639,8.9212964 8.5728653,8.9019157 8.5222998,8.8735791 8.4686375,8.8501709 8.4211689,8.8169059 8.2897278,8.7247949 8.1919381,8.6168909 8.0916002,8.491325 7.8624009,8.2044981 7.6800516,7.8840681 7.4897638,7.5714005 7.235445,7.1551453 6.9857625,6.7332338 6.6823518,6.3498007 6.5782087,6.2181904 6.4705592,6.0888102 6.3535332,5.9685102 6.0572547,5.6639428 5.9890363,5.6413222 5.6508076,5.4117272 5.3231738,5.2414821 5.2314631,5.1722964 4.8744645,5.0720688 4.4621775,4.9563189 4.0306572,4.9330668 3.6071268,4.9929671 3.4609688,5.013639 3.3180242,5.0527802 3.1734731,5.0826868 2.8088154,5.2170306 2.6963137,5.2338406 2.3703709,5.4525762 1.9725587,5.7195418 1.6451961,6.0802073 1.4448592,6.518104 1.3767539,6.6669684 1.3386417,6.8278028 1.2855332,6.9826523 1.223951,7.4257442 1.1793827,7.5296032 1.2391708,7.980913 c 0.068588,0.5177338 0.2736302,1.0226913 0.6030481,1.430244 0.1096825,0.135698 0.2457085,0.247798 0.3685627,0.371697 0.1322364,0.08687 0.258249,0.184044 0.3967097,0.260602 0.2411372,0.13333 0.5479814,0.244177 0.8159908,0.307675 0.2885652,0.06837 0.5555774,0.100433 0.8521319,0.08123 0.1278051,-0.0083 0.2530991,-0.03939 0.3796485,-0.05908 0.1082302,-0.03513 0.2187308,-0.06391 0.3246906,-0.10538 C 5.4115004,10.098981 5.8329383,9.810123 6.144483,9.467277 6.2351311,9.367522 6.3127011,9.2566219 6.3968103,9.1512945 6.5869436,8.8278477 6.6388437,8.7713039 6.7719416,8.4123082 6.9344587,7.9739614 7.0200305,7.5058304 7.0792086,7.0437552 c 0.02163,-0.1688859 0.034421,-0.3387865 0.051631,-0.5081799 0.00997,-0.1720842 0.022865,-0.344024 0.029927,-0.5162524 0.015163,-0.3698168 0.015904,-0.659144 0.00799,-1.0281361 C 7.1618096,4.6669129 7.1462945,4.2990082 7.1215662,3.9754101 7.1096335,3.8192678 7.0921091,3.6636034 7.0773806,3.5076998 7.0586137,3.3712219 7.0424722,3.2343569 7.0210788,3.0982658 6.969997,2.7733122 6.8967122,2.4521134 6.8156817,2.1334913 6.6435856,1.4476677 5.673685,1.6910482 5.8457809,2.3768717 Z" />
  </g>
</svg>
